<?xml version="1.0"?>
<svg xmlns="http://www.w3.org/2000/svg" id="Capa_1" enable-background="new 0 0 512 512" height="512px" viewBox="0 0 512 512" width="512px"><g><path d="m481.942 193.698c-1.511-42.527-16.12-82.604-42.493-116.319-2.553-3.263-7.266-3.838-10.528-1.286-3.263 2.552-3.838 7.266-1.286 10.528 24.207 30.946 37.708 67.687 39.288 106.685h-14.906c-4.063-90.799-79.193-163.413-170.967-163.413-94.368 0-171.143 76.783-171.143 171.162v111.821h-14.888v-111.821c0-102.591 83.453-186.055 186.031-186.055 42.273 0 82.142 13.88 115.293 40.14 3.248 2.572 7.964 2.026 10.536-1.222 2.572-3.247 2.024-7.964-1.222-10.536-35.83-28.381-78.918-43.382-124.607-43.382-110.849 0-201.031 90.193-201.031 201.055v113.468c-12.78 4.257-22.023 16.324-22.023 30.516v62.961c0 9.63 15 9.644 15 0v-62.961c0-8.191 5.585-16.75 13.457-16.75 6.548 0 26.548-.19 32.942-.19 8.312 0 14.529 8.373 14.529 16.94v24.161c0 4.142 3.357 7.5 7.5 7.5h29.757v47.775h-29.757c-4.143 0-7.5 3.358-7.5 7.5v34.658h-60.929v-15.633c0-9.63-15-9.644-15 0v15.949c-18.616 2.372-33.058 18.301-33.058 37.551 0 4.142 3.357 7.5 7.5 7.5h142.044c4.143 0 7.5-3.358 7.5-7.5 0-19.25-14.442-35.18-33.059-37.551v-27.474h29.757.997 48.818c4.143 0 7.5-3.358 7.5-7.5v-62.775-59.785c0-9.63-15-9.644-15 0v52.285h-41.318-.997-29.757v-16.661c0-14.921-10.214-27.5-24.016-31.115v-112.869c0-86.108 70.045-156.162 156.143-156.162 83.824 0 152.42 66.405 155.986 149.376-2.284 1.286-3.829 3.729-3.829 6.537v32.882c0 4.142 3.357 7.5 7.5 7.5h38.855c4.143 0 7.5-3.358 7.5-7.5v-32.882c.002-3.31-2.144-6.113-5.119-7.108zm-316.223 303.302h-124.519c3.111-8.937 11.621-15.367 21.604-15.367h81.31c9.984 0 18.493 6.43 21.605 15.367zm55.276-72.525h-33.818v-47.775h33.818zm227.212-198.287v-17.633h23.855v17.633z" data-original="#000000" class="active-path" data-old_color="#000000" fill="#FFFFFF"/><path d="m466.63 262.357c-2.802-4.852-10.168-4.888-12.99 0l-16.021 27.75c-4.7 8.14-4.7 17.859 0 26 4.699 8.141 13.117 13 22.517 13s17.817-4.86 22.517-13 4.7-17.859 0-26zm3.031 46.25c-1.988 3.444-5.55 5.5-9.526 5.5s-7.538-2.056-9.526-5.5-1.988-7.556 0-11l9.526-16.5 9.526 16.5c1.988 3.444 1.988 7.556 0 11z" data-original="#000000" class="active-path" data-old_color="#000000" fill="#FFFFFF"/></g> </svg>
